<svg xmlns="http://www.w3.org/2000/svg" width="32" height="32" viewBox="0 0 32 32">
  <rect width="32" height="32" rx="6" fill="#0770e3"/>
  <g transform="translate(5, 8)" fill="none" stroke="#fff" stroke-width="1.8" stroke-linecap="round" stroke-linejoin="round">
    <path d="M1 12h1m18 0h1"/>
    <path d="M3 12V8.5a1 1 0 0 1 1-1h2.28a1 1 0 0 1 .78.37L9 10h5a1 1 0 0 1 1 1v1"/>
    <path d="M3 12h12"/>
    <path d="M14 10l1.5-3.5a1 1 0 0 1 .9-.5H19a1 1 0 0 1 1 1V12h-6"/>
    <circle cx="6.5" cy="12" r="2"/>
    <circle cx="16.5" cy="12" r="2"/>
  </g>
</svg>
